<svg xmlns="http://www.w3.org/2000/svg" xmlns:svg="http://www.w3.org/2000/svg" xmlns:xlink="http://www.w3.org/1999/xlink" version="1.0" height="991pt" width="1390.0000000000002pt" viewBox="154.99999999999994 36.99999999999997 1398.0000000000002 997" ><defs><style type="text/css">
            @font-face {
                font-family: 'lt_regular';
                src: url('https://app.creately.com/diagram/assets/fonts/lato/lt-regular-webfont.woff2') format('woff2'),
                    url('https://app.creately.com/diagram/assets/fonts/lato/lt-regular-webfont.woff') format('woff');
                font-weight: normal;
                font-style: normal;
            }
            @font-face {
                font-family: 'noto_regular';
                src: url('https://app.creately.com/diagram/assets/fonts/noto/noto-regular.woff') format('woff'),
                     url('https://app.creately.com/diagram/assets/fonts/noto/noto-regular.woff2') format('woff2');
                font-weight: normal;
                font-style: normal;
            }
        p {
            margin: 0;
        }
        </style></defs><defs><style>
            span{ display: inline-block; }
        </style></defs><g id="vHaAz4vDcPl"><g transform="translate(640 39.99999999999997)"><rect x="0" y="0" width="179.9999999999999" height="120.00000000000001" rx="2" ry="2" fill="rgb(65,90,95)" stroke="#ffffff" stroke-width="2" stroke-linecap="round" stroke-linejoin="round" stroke-dasharray="0 0"/><path d="M 0,30 L 179.9999999999999,30" fill="rgb(65,90,95)" stroke="#ffffff" stroke-width="2" stroke-linecap="round" stroke-linejoin="round" stroke-dasharray="0 0"/></g><g transform="translate(650, 44.99999999999997) rotate(0, 0, 0)" width="33" height="20"><text text-decoration="none" x="0" fill="#ffffff" font-size="10pt" font-family="lt_regular"  y="15">Users</text><text text-decoration="none" x="34" fill="#4b4b4b" font-size="10pt" font-family="noto_regular"  y="15"></text></g><g transform="translate(650, 74.99999999999997) rotate(0, 0, 0)" width="75" height="58"><text text-decoration="none" x="0" fill="#ffffff" font-size="10pt" font-family="lt_regular"  y="14">Name:&#160;</text><text text-decoration="none" x="40" fill="#ffffff" font-size="10pt" font-family="lt_regular"  y="14">String</text><text text-decoration="none" x="74" fill="#ffffff" font-size="10pt" font-family="lt_regular"  y="14"></text><text text-decoration="none" x="0" fill="#ffffff" font-size="10pt" font-family="lt_regular"  y="32">Nos&#160;</text><text text-decoration="none" x="26" fill="#ffffff" font-size="10pt" font-family="lt_regular"  y="32">:&#160;</text><text text-decoration="none" x="32" fill="#ffffff" font-size="10pt" font-family="lt_regular"  y="32">Int</text><text text-decoration="none" x="48" fill="#ffffff" font-size="10pt" font-family="lt_regular"  y="32"></text><text text-decoration="none" x="0" fill="#ffffff" font-size="10pt" font-family="lt_regular"  y="51">ID&#160;</text><text text-decoration="none" x="17" fill="#ffffff" font-size="10pt" font-family="lt_regular"  y="51">:&#160;</text><text text-decoration="none" x="23" fill="#ffffff" font-size="10pt" font-family="lt_regular"  y="51">Int</text><text text-decoration="none" x="39" fill="#4b4b4b" font-size="10pt" font-family="noto_regular"  y="51"></text></g></g><g id="aVnayENwP6m"><g transform="translate(249.99999999999991 200)"><rect x="0" y="0" width="179.9999999999999" height="204" rx="2" ry="2" fill="rgb(206,102,100)" stroke="#ffffff" stroke-width="2" stroke-linecap="round" stroke-linejoin="round" stroke-dasharray="0 0"/><path d="M 0,30 L 179.9999999999999,30 M 0,136 L 179.9999999999999,136" fill="rgb(206,102,100)" stroke="#ffffff" stroke-width="2" stroke-linecap="round" stroke-linejoin="round" stroke-dasharray="0 0"/></g><g transform="translate(322.99999999999983, 205) rotate(0, 17, 0)" width="34" height="20"><text text-decoration="none" x="0" fill="#ffffff" font-size="10pt" font-family="lt_regular"  y="15">Buyer</text><text text-decoration="none" x="34" fill="#4b4b4b" font-size="10pt" font-family="noto_regular"  y="15"></text></g><g transform="translate(259.9999999999999, 235) rotate(0, 0, 0)" width="123" height="96"><text text-decoration="none" x="0" fill="#ffffff" font-size="10pt" font-family="lt_regular"  y="14">Name:&#160;</text><text text-decoration="none" x="40" fill="#ffffff" font-size="10pt" font-family="lt_regular"  y="14">String</text><text text-decoration="none" x="74" fill="#ffffff" font-size="10pt" font-family="lt_regular"  y="14"></text><text text-decoration="none" x="0" fill="#ffffff" font-size="10pt" font-family="lt_regular"  y="32">No:&#160;</text><text text-decoration="none" x="23" fill="#ffffff" font-size="10pt" font-family="lt_regular"  y="32">Int</text><text text-decoration="none" x="39" fill="#ffffff" font-size="10pt" font-family="lt_regular"  y="32"></text><text text-decoration="none" x="0" fill="#ffffff" font-size="10pt" font-family="lt_regular"  y="50">ID&#160;</text><text text-decoration="none" x="17" fill="#ffffff" font-size="10pt" font-family="lt_regular"  y="50">:&#160;</text><text text-decoration="none" x="23" fill="#ffffff" font-size="10pt" font-family="lt_regular"  y="50">Int</text><text text-decoration="none" x="39" fill="#ffffff" font-size="10pt" font-family="lt_regular"  y="50"></text><text text-decoration="none" x="0" fill="#ffffff" font-size="10pt" font-family="lt_regular"  y="68">Object_name&#160;</text><text text-decoration="none" x="78" fill="#ffffff" font-size="10pt" font-family="lt_regular"  y="68">:&#160;</text><text text-decoration="none" x="84" fill="#ffffff" font-size="10pt" font-family="lt_regular"  y="68">String</text><text text-decoration="none" x="118" fill="#ffffff" font-size="10pt" font-family="lt_regular"  y="68"></text><text text-decoration="none" x="0" fill="#ffffff" font-size="10pt" font-family="lt_regular"  y="87">Bidding_amount:&#160;</text><text text-decoration="none" x="97" fill="#ffffff" font-size="10pt" font-family="lt_regular"  y="87">Inte</text><text text-decoration="none" x="120" fill="#4b4b4b" font-size="10pt" font-family="noto_regular"  y="87"></text></g><g transform="translate(259.9999999999999, 341) rotate(0, 0, 0)" width="47" height="58"><text text-decoration="none" x="0" fill="#ffffff" font-size="10pt" font-family="lt_regular"  y="14">Search()</text><text text-decoration="none" x="44" fill="#ffffff" font-size="10pt" font-family="lt_regular"  y="14"></text><text text-decoration="none" x="0" fill="#ffffff" font-size="10pt" font-family="lt_regular"  y="32">Bid()</text><text text-decoration="none" x="27" fill="#ffffff" font-size="10pt" font-family="lt_regular"  y="32"></text><text text-decoration="none" x="0" fill="#ffffff" font-size="10pt" font-family="lt_regular"  y="51">Buy()</text><text text-decoration="none" x="31" fill="#4b4b4b" font-size="10pt" font-family="noto_regular"  y="51"></text></g></g><g id="h8HNWZhlejw"><g transform="translate(1060 200)"><rect x="0" y="0" width="179.9999999999999" height="223" rx="2" ry="2" fill="rgb(206,102,100)" stroke="#ffffff" stroke-width="2" stroke-linecap="round" stroke-linejoin="round" stroke-dasharray="0 0"/><path d="M 0,30 L 179.9999999999999,30 M 0,155 L 179.9999999999999,155" fill="rgb(206,102,100)" stroke="#ffffff" stroke-width="2" stroke-linecap="round" stroke-linejoin="round" stroke-dasharray="0 0"/></g><g transform="translate(1070, 205) rotate(0, 0, 0)" width="32" height="20"><text text-decoration="none" x="0" fill="#ffffff" font-size="10pt" font-family="lt_regular"  y="15">Seller</text><text text-decoration="none" x="32" fill="#4b4b4b" font-size="10pt" font-family="noto_regular"  y="15"></text></g><g transform="translate(1070, 235) rotate(0, 0, 0)" width="121" height="115"><text text-decoration="none" x="0" fill="#ffffff" font-size="10pt" font-family="lt_regular"  y="14">Name&#160;</text><text text-decoration="none" x="37" fill="#ffffff" font-size="10pt" font-family="lt_regular"  y="14">:&#160;</text><text text-decoration="none" x="43" fill="#ffffff" font-size="10pt" font-family="lt_regular"  y="14">String</text><text text-decoration="none" x="77" fill="#ffffff" font-size="10pt" font-family="lt_regular"  y="14"></text><text text-decoration="none" x="0" fill="#ffffff" font-size="10pt" font-family="lt_regular"  y="32">Nos:&#160;</text><text text-decoration="none" x="29" fill="#ffffff" font-size="10pt" font-family="lt_regular"  y="32">Int</text><text text-decoration="none" x="45" fill="#ffffff" font-size="10pt" font-family="lt_regular"  y="32"></text><text text-decoration="none" x="0" fill="#ffffff" font-size="10pt" font-family="lt_regular"  y="50">ID&#160;</text><text text-decoration="none" x="17" fill="#ffffff" font-size="10pt" font-family="lt_regular"  y="50">:&#160;</text><text text-decoration="none" x="23" fill="#ffffff" font-size="10pt" font-family="lt_regular"  y="50">Int</text><text text-decoration="none" x="39" fill="#ffffff" font-size="10pt" font-family="lt_regular"  y="50"></text><text text-decoration="none" x="0" fill="#ffffff" font-size="10pt" font-family="lt_regular"  y="68">Object_name&#160;</text><text text-decoration="none" x="78" fill="#ffffff" font-size="10pt" font-family="lt_regular"  y="68">:&#160;</text><text text-decoration="none" x="84" fill="#ffffff" font-size="10pt" font-family="lt_regular"  y="68">String</text><text text-decoration="none" x="118" fill="#ffffff" font-size="10pt" font-family="lt_regular"  y="68"></text><text text-decoration="none" x="0" fill="#ffffff" font-size="10pt" font-family="lt_regular"  y="86">Base_price:&#160;</text><text text-decoration="none" x="67" fill="#ffffff" font-size="10pt" font-family="lt_regular"  y="86">Int</text><text text-decoration="none" x="83" fill="#ffffff" font-size="10pt" font-family="lt_regular"  y="86"></text><text text-decoration="none" x="0" fill="#ffffff" font-size="10pt" font-family="lt_regular"  y="105">Time_limit:&#160;</text><text text-decoration="none" x="66" fill="#ffffff" font-size="10pt" font-family="lt_regular"  y="105">Int</text><text text-decoration="none" x="82" fill="#4b4b4b" font-size="10pt" font-family="noto_regular"  y="105"></text></g><g transform="translate(1070, 360) rotate(0, 0, 0)" width="118" height="39"><text text-decoration="none" x="0" fill="#ffffff" font-size="10pt" font-family="lt_regular"  y="14">host_auction()</text><text text-decoration="none" x="78" fill="#ffffff" font-size="10pt" font-family="lt_regular"  y="14"></text><text text-decoration="none" x="0" fill="#ffffff" font-size="10pt" font-family="lt_regular"  y="33">set_bidding_details()</text><text text-decoration="none" x="114" fill="#4b4b4b" font-size="10pt" font-family="noto_regular"  y="33"></text></g></g><g id="w3vgeyvtN7j"><g transform="translate(469.99999999999983 520)"><rect x="0" y="0" width="180" height="174" rx="2" ry="2" fill="rgb(65,90,95)" stroke="#ffffff" stroke-width="2" stroke-linecap="round" stroke-linejoin="round" stroke-dasharray="0 0"/><path d="M 0,30 L 180,30" fill="rgb(65,90,95)" stroke="#ffffff" stroke-width="2" stroke-linecap="round" stroke-linejoin="round" stroke-dasharray="0 0"/></g><g transform="translate(479.99999999999983, 525) rotate(0, 0, 0)" width="39" height="20"><text text-decoration="none" x="0" fill="#ffffff" font-size="10pt" font-family="lt_regular"  y="15">Object</text><text text-decoration="none" x="38" fill="#4b4b4b" font-size="10pt" font-family="noto_regular"  y="15"></text></g><g transform="translate(479.99999999999983, 555) rotate(0, 0, 0)" width="128" height="134"><text text-decoration="none" x="28.5" fill="#ffffff" font-size="10pt" font-family="lt_regular"  y="14">Name:&#160;</text><text text-decoration="none" x="68.5" fill="#ffffff" font-size="10pt" font-family="lt_regular"  y="14">String</text><text text-decoration="none" x="102.5" fill="#ffffff" font-size="10pt" font-family="lt_regular"  y="14"></text><text text-decoration="none" x="0" fill="#ffffff" font-size="10pt" font-family="lt_regular"  y="32">Descripiton&#160;</text><text text-decoration="none" x="69" fill="#ffffff" font-size="10pt" font-family="lt_regular"  y="32">:&#160;</text><text text-decoration="none" x="75" fill="#ffffff" font-size="10pt" font-family="lt_regular"  y="32">String</text><text text-decoration="none" x="109" fill="#ffffff" font-size="10pt" font-family="lt_regular"  y="32"></text><text text-decoration="none" x="0" fill="#ffffff" font-size="10pt" font-family="lt_regular"  y="50">Start_bid:&#160;</text><text text-decoration="none" x="57" fill="#ffffff" font-size="10pt" font-family="lt_regular"  y="50">Int</text><text text-decoration="none" x="73" fill="#ffffff" font-size="10pt" font-family="lt_regular"  y="50"></text><text text-decoration="none" x="0" fill="#ffffff" font-size="10pt" font-family="lt_regular"  y="68">Last_bid:&#160;</text><text text-decoration="none" x="53" fill="#ffffff" font-size="10pt" font-family="lt_regular"  y="68">Int</text><text text-decoration="none" x="69" fill="#ffffff" font-size="10pt" font-family="lt_regular"  y="68"></text><text text-decoration="none" x="0" fill="#ffffff" font-size="10pt" font-family="lt_regular"  y="86">Current_bidder:&#160;</text><text text-decoration="none" x="93" fill="#ffffff" font-size="10pt" font-family="lt_regular"  y="86">String</text><text text-decoration="none" x="127" fill="#ffffff" font-size="10pt" font-family="lt_regular"  y="86"></text><text text-decoration="none" x="0" fill="#ffffff" font-size="10pt" font-family="lt_regular"  y="104">Status:&#160;</text><text text-decoration="none" x="42" fill="#ffffff" font-size="10pt" font-family="lt_regular"  y="104">Time</text><text text-decoration="none" x="71" fill="#ffffff" font-size="10pt" font-family="lt_regular"  y="104"></text><text text-decoration="none" x="0" fill="#ffffff" font-size="10pt" font-family="lt_regular"  y="123">Category:&#160;</text><text text-decoration="none" x="59" fill="#ffffff" font-size="10pt" font-family="lt_regular"  y="123">String</text><text text-decoration="none" x="93" fill="#4b4b4b" font-size="10pt" font-family="noto_regular"  y="123"></text></g></g><g id="IrrdVPi74Pa"><g transform="translate(1300.0000000000002 519.9999999999998)"><rect x="0" y="0" width="180" height="219" rx="2" ry="2" fill="rgb(65,90,95)" stroke="#ffffff" stroke-width="2" stroke-linecap="round" stroke-linejoin="round" stroke-dasharray="0 0"/><path d="M 0,47 L 180,47 M 0,96 L 180,96" fill="rgb(65,90,95)" stroke="#ffffff" stroke-width="2" stroke-linecap="round" stroke-linejoin="round" stroke-dasharray="0 0"/></g><g transform="translate(1310.0000000000002, 524.9999999999998) rotate(0, 0, 0)" width="38" height="37"><text text-decoration="none" x="0" fill="#ffffff" font-size="10pt" font-family="lt_regular"  y="14">Admin</text><text text-decoration="none" x="37" fill="#ffffff" font-size="10pt" font-family="lt_regular"  y="14"></text><text text-decoration="none" x="19" fill="#4b4b4b" font-size="10pt" font-family="noto_regular"  y="33"></text></g><g transform="translate(1310.0000000000002, 571.9999999999998) rotate(0, 0, 0)" width="102" height="39"><text text-decoration="none" x="0" fill="#ffffff" font-size="10pt" font-family="lt_regular"  y="14">Username&#160;</text><text text-decoration="none" x="62" fill="#ffffff" font-size="10pt" font-family="lt_regular"  y="14">:&#160;</text><text text-decoration="none" x="68" fill="#ffffff" font-size="10pt" font-family="lt_regular"  y="14">String</text><text text-decoration="none" x="102" fill="#ffffff" font-size="10pt" font-family="lt_regular"  y="14"></text><text text-decoration="none" x="0" fill="#ffffff" font-size="10pt" font-family="lt_regular"  y="33">Password:&#160;</text><text text-decoration="none" x="61" fill="#ffffff" font-size="10pt" font-family="lt_regular"  y="33">String</text><text text-decoration="none" x="95" fill="#4b4b4b" font-size="10pt" font-family="noto_regular"  y="33"></text></g><g transform="translate(1310.0000000000002, 620.9999999999998) rotate(0, 0, 0)" width="132" height="113"><text text-decoration="none" x="0" fill="#ffffff" font-size="10pt" font-family="lt_regular"  y="14">Blocking()</text><text text-decoration="none" x="54" fill="#ffffff" font-size="10pt" font-family="lt_regular"  y="14"></text><text text-decoration="none" x="0" fill="#ffffff" font-size="10pt" font-family="lt_regular"  y="32">Notification()</text><text text-decoration="none" x="72" fill="#ffffff" font-size="10pt" font-family="lt_regular"  y="32"></text><text text-decoration="none" x="0" fill="#ffffff" font-size="10pt" font-family="lt_regular"  y="50">Ownership_of_object()</text><text text-decoration="none" x="127" fill="#ffffff" font-size="10pt" font-family="lt_regular"  y="50"></text><text text-decoration="none" x="0" fill="#ffffff" font-size="10pt" font-family="lt_regular"  y="68">Transfer_of_amount()</text><text text-decoration="none" x="122" fill="#ffffff" font-size="10pt" font-family="lt_regular"  y="68"></text><text text-decoration="none" x="0" fill="#ffffff" font-size="10pt" font-family="lt_regular"  y="86">Track_of_payment()</text><text text-decoration="none" x="112" fill="#ffffff" font-size="10pt" font-family="lt_regular"  y="86"></text><text text-decoration="none" x="66" fill="#4b4b4b" font-size="10pt" font-family="noto_regular"  y="105"></text></g></g><g id="dqOOFoCUMLt"><g transform="translate(1059.9999999999993 850)"><rect x="0" y="0" width="180" height="69.99999999999979" rx="2" ry="2" fill="rgb(206,102,100)" stroke="#ffffff" stroke-width="2" stroke-linecap="round" stroke-linejoin="round" stroke-dasharray="0 0"/><path d="M 0,30 L 180,30" fill="rgb(206,102,100)" stroke="#ffffff" stroke-width="2" stroke-linecap="round" stroke-linejoin="round" stroke-dasharray="0 0"/></g><g transform="translate(1069.9999999999993, 855) rotate(0, 0, 0)" width="51" height="20"><text text-decoration="none" x="0" fill="#ffffff" font-size="10pt" font-family="lt_regular"  y="15">Payment</text><text text-decoration="none" x="51" fill="#4b4b4b" font-size="10pt" font-family="noto_regular"  y="15"></text></g><g transform="translate(1069.9999999999993, 885) rotate(0, 0, 0)" width="72" height="20"><text text-decoration="none" x="3.5" fill="#ffffff" font-size="10pt" font-family="lt_regular"  y="15">Amount:&#160;</text><text text-decoration="none" x="55.5" fill="#ffffff" font-size="10pt" font-family="lt_regular"  y="15">Int</text><text text-decoration="none" x="71.5" fill="#4b4b4b" font-size="10pt" font-family="noto_regular"  y="15"></text></g></g><g id="vSipThQWiuc"><g transform="translate(240.00000000000017 850)"><rect x="0" y="0" width="180" height="181" rx="2" ry="2" fill="rgb(206,102,100)" stroke="#ffffff" stroke-width="2" stroke-linecap="round" stroke-linejoin="round" stroke-dasharray="0 0"/><path d="M 0,47 L 180,47 M 0,113 L 180,113" fill="rgb(206,102,100)" stroke="#ffffff" stroke-width="2" stroke-linecap="round" stroke-linejoin="round" stroke-dasharray="0 0"/></g><g transform="translate(250.00000000000017, 855) rotate(0, 0, 0)" width="19" height="37"><text text-decoration="none" x="0" fill="#ffffff" font-size="10pt" font-family="lt_regular"  y="14">Bid</text><text text-decoration="none" x="18" fill="#ffffff" font-size="10pt" font-family="lt_regular"  y="14"></text><text text-decoration="none" x="9.5" fill="#4b4b4b" font-size="10pt" font-family="noto_regular"  y="33"></text></g><g transform="translate(250.00000000000017, 902) rotate(0, 0, 0)" width="105" height="56"><text text-decoration="none" x="0" fill="#ffffff" font-size="10pt" font-family="lt_regular"  y="14">Current_bid:&#160;</text><text text-decoration="none" x="74" fill="#ffffff" font-size="10pt" font-family="lt_regular"  y="14">Int</text><text text-decoration="none" x="90" fill="#ffffff" font-size="10pt" font-family="lt_regular"  y="14"></text><text text-decoration="none" x="0" fill="#ffffff" font-size="10pt" font-family="lt_regular"  y="32">Maximum_bid:&#160;</text><text text-decoration="none" x="85" fill="#ffffff" font-size="10pt" font-family="lt_regular"  y="32">Int</text><text text-decoration="none" x="101" fill="#ffffff" font-size="10pt" font-family="lt_regular"  y="32"></text><text text-decoration="none" x="52.5" fill="#4b4b4b" font-size="10pt" font-family="noto_regular"  y="51"></text></g><g transform="translate(250.00000000000017, 968) rotate(0, 0, 0)" width="134" height="20"><text text-decoration="none" x="5.5" fill="#ffffff" font-size="10pt" font-family="lt_regular"  y="15">Sort_bidding_amount()</text><text text-decoration="none" x="131.5" fill="#4b4b4b" font-size="10pt" font-family="noto_regular"  y="15"></text></g></g><g id="vbLEBCeLv27"><mask id="8e0a4" x="326" y="86" width="328" height="128" maskUnits="userSpaceOnUse"><rect x="326" y="86" width="328" height="128" fill="white" />undefined</mask><g mask="url(#8e0a4)"><path d="M 640,100 L 339.99999999999983,99.99999999999999 L 340,200" fill="none" stroke="#141413" stroke-width="2" stroke-linecap="round" stroke-linejoin="round" stroke-dasharray="0 0"/><path d="M 340,200 L 346.49717514124296,193.04347826086956 M 340,200 L 333.50282485875704,193.04347826086956 Z" fill="rgb(255,255,255)" stroke="#141413" stroke-width="2" stroke-linecap="round" stroke-linejoin="round"/></g>undefined</g><g id="Tt0jMtpWGPA"><mask id="1abf7" x="806" y="86" width="358" height="128" maskUnits="userSpaceOnUse"><rect x="806" y="86" width="358" height="128" fill="white" />undefined</mask><g mask="url(#1abf7)"><path d="M 820,100 L 1150,99.99999999999999 L 1150,200" fill="none" stroke="#141413" stroke-width="2" stroke-linecap="round" stroke-linejoin="round" stroke-dasharray="0 0"/><path d="M 1150,200 L 1156.497175141243,193.04347826086956 M 1150,200 L 1143.502824858757,193.04347826086956 Z" fill="rgb(255,255,255)" stroke="#141413" stroke-width="2" stroke-linecap="round" stroke-linejoin="round"/></g>undefined</g><g id="FIxc5uyA3Ah"><mask id="7d9c1" x="206" y="288" width="58" height="667" maskUnits="userSpaceOnUse"><rect x="206" y="288" width="58" height="667" fill="white" />undefined</mask><g mask="url(#7d9c1)"><path d="M 250,302 L 230,302 L 230,566 L 230,830 L 225,830 L 220,830 L 220,886 L 220,941 L 240,941" fill="none" stroke="#141413" stroke-width="2" stroke-linecap="round" stroke-linejoin="round" stroke-dasharray="0 0"/><path d="M 240,941 L 233.04347826086956,934.5028248587571 M 240,941 L 233.04347826086956,947.4971751412429 Z" fill="rgb(255,255,255)" stroke="#141413" stroke-width="2" stroke-linecap="round" stroke-linejoin="round"/></g>undefined</g><g id="Ei1uxdE9Mco"><g transform="translate(159.99999999999994 540)"><rect x="0" y="0" width="250" height="100" fill="rgba(255,255,255,0.01)" stroke="rgba(255,255,255,0.01)" stroke-width="2" stroke-linecap="round" stroke-linejoin="round" stroke-dasharray="0 0"/></g><g transform="translate(169.99999999999994, 550) rotate(0, 0, 0)" width="51" height="20"><text text-decoration="none" x="0" fill="#1a1919" font-size="10pt" font-family="lt_regular"  y="15">Bidding()</text><text text-decoration="none" x="48" fill="#4b4b4b" font-size="10pt" font-family="noto_regular"  y="15"></text></g></g><g id="hPgVhE8ikbx"><mask id="403d4" x="416" y="237" width="898" height="406" maskUnits="userSpaceOnUse"><rect x="416" y="237" width="898" height="406" fill="white" />undefined</mask><g mask="url(#403d4)"><path d="M 430,251 L 699.1377463053295,251 L 699,440 L 699.1377463053295,629 L 1300,629" fill="none" stroke="#141413" stroke-width="2" stroke-linecap="round" stroke-linejoin="round" stroke-dasharray="0 0"/><path d="M 1300,629 L 1293.0434782608695,622.5028248587571 M 1300,629 L 1293.0434782608695,635.4971751412429 Z" fill="rgb(255,255,255)" stroke="#141413" stroke-width="2" stroke-linecap="round" stroke-linejoin="round"/></g>undefined</g><g id="JNaqDllr81V"><mask id="fcfe4" x="416" y="339" width="68" height="282" maskUnits="userSpaceOnUse"><rect x="416" y="339" width="68" height="282" fill="white" />undefined</mask><g mask="url(#fcfe4)"><path d="M 430,353 L 450,353 L 450,480 L 450,607 L 470,607" fill="none" stroke="#141413" stroke-width="2" stroke-linecap="round" stroke-linejoin="round" stroke-dasharray="0 0"/><path d="M 470,607 L 463.04347826086956,600.5028248587571 M 470,607 L 463.04347826086956,613.4971751412429 Z" fill="rgb(255,255,255)" stroke="#141413" stroke-width="2" stroke-linecap="round" stroke-linejoin="round"/></g>undefined</g><g id="6ScCF0ufT2t"><g transform="translate(459.99999999999994 430)"><rect x="0" y="0" width="250" height="100" fill="rgba(255,255,255,0.01)" stroke="rgba(255,255,255,0.01)" stroke-width="2" stroke-linecap="round" stroke-linejoin="round" stroke-dasharray="0 0"/></g><g transform="translate(469.99999999999994, 440) rotate(0, 0, 0)" width="82" height="20"><text text-decoration="none" x="0" fill="#1a1919" font-size="10pt" font-family="lt_regular"  y="15">Buy()/Search()</text><text text-decoration="none" x="78" fill="#4b4b4b" font-size="10pt" font-family="noto_regular"  y="15"></text></g></g><g id="f9e0sBvRpNA"><mask id="87ba3" x="1226" y="242" width="223" height="292" maskUnits="userSpaceOnUse"><rect x="1226" y="242" width="223" height="292" fill="white" />undefined</mask><g mask="url(#87ba3)"><path d="M 1435,520 L 1435,256 L 1240,256" fill="none" stroke="#141413" stroke-width="2" stroke-linecap="round" stroke-linejoin="round" stroke-dasharray="0 0"/><path d="M 1240,256 L 1246.9565217391305,262.49717514124296 M 1240,256 L 1246.9565217391305,249.50282485875707 Z" fill="rgb(255,255,255)" stroke="#141413" stroke-width="2" stroke-linecap="round" stroke-linejoin="round"/></g>undefined</g><g id="k0jEXh0sX64"><mask id="15837" x="761" y="146" width="553" height="443" maskUnits="userSpaceOnUse"><rect x="761" y="146" width="553" height="443" fill="white" />undefined</mask><g mask="url(#15837)"><path d="M 1300,575 L 774.9999999999999,574.7499999999998 L 775,160" fill="none" stroke="#141413" stroke-width="2" stroke-linecap="round" stroke-linejoin="round" stroke-dasharray="0 0"/><path d="M 775,160 L 768.5028248587571,166.95652173913044 M 775,160 L 781.4971751412429,166.95652173913044 Z" fill="rgb(255,255,255)" stroke="#141413" stroke-width="2" stroke-linecap="round" stroke-linejoin="round"/></g>undefined</g><g id="nQmIqXik3Fy"><mask id="7190c" x="591" y="298" width="483" height="236" maskUnits="userSpaceOnUse"><rect x="591" y="298" width="483" height="236" fill="white" />undefined</mask><g mask="url(#7190c)"><path d="M 1060,312 L 604.9999999999998,311.5 L 605,520" fill="none" stroke="#141413" stroke-width="2" stroke-linecap="round" stroke-linejoin="round" stroke-dasharray="0 0"/><path d="M 605,520 L 611.4971751412429,513.0434782608696 M 605,520 L 598.5028248587571,513.0434782608696 Z" fill="rgb(255,255,255)" stroke="#141413" stroke-width="2" stroke-linecap="round" stroke-linejoin="round"/></g>undefined</g><g id="dIClXTerqAP"><mask id="08aae" x="636" y="637" width="678" height="61" maskUnits="userSpaceOnUse"><rect x="636" y="637" width="678" height="61" fill="white" />undefined</mask><g mask="url(#08aae)"><path d="M 1300,684 L 975,684 L 975,668 L 975,651 L 650,651" fill="none" stroke="#141413" stroke-width="2" stroke-linecap="round" stroke-linejoin="round" stroke-dasharray="0 0"/><path d="M 650,651 L 656.9565217391304,657.4971751412429 M 650,651 L 656.9565217391304,644.5028248587571 Z" fill="rgb(255,255,255)" stroke="#141413" stroke-width="2" stroke-linecap="round" stroke-linejoin="round"/></g>undefined</g><g id="Rh93gNbmCBm"><mask id="f4c9e" x="406" y="353" width="668" height="556" maskUnits="userSpaceOnUse"><rect x="406" y="353" width="668" height="556" fill="white" />undefined</mask><g mask="url(#f4c9e)"><path d="M 1060,367 L 740,367 L 740,631 L 740,895 L 420,895" fill="none" stroke="#141413" stroke-width="2" stroke-linecap="round" stroke-linejoin="round" stroke-dasharray="0 0"/><path d="M 420,895 L 426.95652173913044,901.4971751412429 M 420,895 L 426.95652173913044,888.5028248587571 Z" fill="rgb(255,255,255)" stroke="#141413" stroke-width="2" stroke-linecap="round" stroke-linejoin="round"/></g>undefined</g><g id="G3HPhusAOhz"><mask id="74e70" x="406" y="888" width="668" height="67" maskUnits="userSpaceOnUse"><rect x="406" y="888" width="668" height="67" fill="white" />undefined</mask><g mask="url(#74e70)"><path d="M 420,941 L 849.1666374673457,941 L 849,922 L 849.1666374673457,902 L 1060,902" fill="none" stroke="#141413" stroke-width="2" stroke-linecap="round" stroke-linejoin="round" stroke-dasharray="0 0"/><path d="M 1060,902 L 1053.0434782608695,895.5028248587571 M 1060,902 L 1053.0434782608695,908.4971751412429 Z" fill="rgb(255,255,255)" stroke="#141413" stroke-width="2" stroke-linecap="round" stroke-linejoin="round"/></g>undefined</g><g id="Gk3sJ0fCCkd"><mask id="29d90" x="1136" y="725" width="268" height="139" maskUnits="userSpaceOnUse"><rect x="1136" y="725" width="268" height="139" fill="white" />undefined</mask><g mask="url(#29d90)"><path d="M 1150,850 L 1150,794.5 L 1270,795 L 1390,794.5 L 1390,739" fill="none" stroke="#141413" stroke-width="2" stroke-linecap="round" stroke-linejoin="round" stroke-dasharray="0 0"/><path d="M 1390,739 L 1383.502824858757,745.9565217391304 M 1390,739 L 1396.497175141243,745.9565217391304 Z" fill="rgb(255,255,255)" stroke="#141413" stroke-width="2" stroke-linecap="round" stroke-linejoin="round"/></g>undefined</g><g id="k04IDT5Wwbl"><g transform="translate(449.99999999999983 700)"><rect x="0" y="0" width="250" height="100" fill="rgba(255,255,255,0.01)" stroke="rgba(255,255,255,0.01)" stroke-width="2" stroke-linecap="round" stroke-linejoin="round" stroke-dasharray="0 0"/></g><g transform="translate(459.99999999999983, 710) rotate(0, 0, 0)" width="246" height="20"><text text-decoration="none" x="0" fill="#1a1919" font-size="10pt" font-family="lt_regular"  y="15">Notification()&#160;</text><text text-decoration="none" x="75" fill="#1a1919" font-size="10pt" font-family="lt_regular"  y="15">and&#160;</text><text text-decoration="none" x="98" fill="#1a1919" font-size="10pt" font-family="lt_regular"  y="15">ownership_of_products()</text><text text-decoration="none" x="237" fill="#4b4b4b" font-size="10pt" font-family="noto_regular"  y="15"></text></g></g><g id="KTRTGtXGdX8"><g transform="translate(429.99999999999994 899.9999999999999)"><rect x="0" y="0" width="250" height="100" fill="rgba(255,255,255,0.01)" stroke="rgba(255,255,255,0.01)" stroke-width="2" stroke-linecap="round" stroke-linejoin="round" stroke-dasharray="0 0"/></g><g transform="translate(439.99999999999994, 909.9999999999999) rotate(0, 0, 0)" width="113" height="20"><text text-decoration="none" x="0" fill="#1a1919" font-size="10pt" font-family="lt_regular"  y="15">Max&#160;</text><text text-decoration="none" x="27" fill="#1a1919" font-size="10pt" font-family="lt_regular"  y="15">bid&#160;</text><text text-decoration="none" x="47" fill="#1a1919" font-size="10pt" font-family="lt_regular"  y="15">as&#160;</text><text text-decoration="none" x="62" fill="#1a1919" font-size="10pt" font-family="lt_regular"  y="15">amount)</text><text text-decoration="none" x="108" fill="#4b4b4b" font-size="10pt" font-family="noto_regular"  y="15"></text></g></g><g id="lGhEanlQoc2"><g transform="translate(1180.0000000000002 749.9999999999999)"><rect x="0" y="0" width="250" height="100" fill="rgba(255,255,255,0.01)" stroke="rgba(255,255,255,0.01)" stroke-width="2" stroke-linecap="round" stroke-linejoin="round" stroke-dasharray="0 0"/></g><g transform="translate(1190.0000000000002, 759.9999999999999) rotate(0, 0, 0)" width="113" height="20"><text text-decoration="none" x="0" fill="#1a1919" font-size="10pt" font-family="lt_regular"  y="15">Track_of_payment()</text><text text-decoration="none" x="112" fill="#4b4b4b" font-size="10pt" font-family="noto_regular"  y="15"></text></g></g><g id="AXDVL0Us0Xr"><g transform="translate(660 620)"><rect x="0" y="0" width="250" height="100" fill="rgba(255,255,255,0.01)" stroke="rgba(255,255,255,0.01)" stroke-width="2" stroke-linecap="round" stroke-linejoin="round" stroke-dasharray="0 0"/></g><g transform="translate(670, 630) rotate(0, 0, 0)" width="30" height="20"><text text-decoration="none" x="0" fill="#1a1919" font-size="10pt" font-family="lt_regular"  y="15">View</text><text text-decoration="none" x="29" fill="#4b4b4b" font-size="10pt" font-family="noto_regular"  y="15"></text></g></g><g id="r45gVWdyO7a"><g transform="translate(949.9999999999995 240.00000000000006)"><rect x="0" y="0" width="250" height="100" fill="rgba(255,255,255,0.01)" stroke="rgba(255,255,255,0.01)" stroke-width="2" stroke-linecap="round" stroke-linejoin="round" stroke-dasharray="0 0"/></g><g transform="translate(959.9999999999995, 250.00000000000006) rotate(0, 0, 0)" width="84" height="20"><text text-decoration="none" x="0" fill="#1a1919" font-size="10pt" font-family="lt_regular"  y="15">Host_auction()</text><text text-decoration="none" x="81" fill="#4b4b4b" font-size="10pt" font-family="noto_regular"  y="15"></text></g></g><g id="dVkdLNUIAjg"><g transform="translate(880 330)"><rect x="0" y="0" width="250" height="100" fill="rgba(255,255,255,0.01)" stroke="rgba(255,255,255,0.01)" stroke-width="2" stroke-linecap="round" stroke-linejoin="round" stroke-dasharray="0 0"/></g><g transform="translate(890, 340) rotate(0, 0, 0)" width="120" height="20"><text text-decoration="none" x="0" fill="#1a1919" font-size="10pt" font-family="lt_regular"  y="15">Set_Bidding_details()</text><text text-decoration="none" x="116" fill="#4b4b4b" font-size="10pt" font-family="noto_regular"  y="15"></text></g></g><g id="rHJcm0KWdci"><g transform="translate(1080.0000000000005 540)"><rect x="0" y="0" width="250" height="100" fill="rgba(255,255,255,0.01)" stroke="rgba(255,255,255,0.01)" stroke-width="2" stroke-linecap="round" stroke-linejoin="round" stroke-dasharray="0 0"/></g><g transform="translate(1090.0000000000005, 550) rotate(0, 0, 0)" width="57" height="20"><text text-decoration="none" x="0" fill="#1a1919" font-size="10pt" font-family="lt_regular"  y="15">Blocking()</text><text text-decoration="none" x="54" fill="#4b4b4b" font-size="10pt" font-family="noto_regular"  y="15"></text></g></g><g id="d8TuYwlNPee"><g transform="translate(1300.0000000000002 209.99999999999997)"><rect x="0" y="0" width="250" height="100" fill="rgba(255,255,255,0.01)" stroke="rgba(255,255,255,0.01)" stroke-width="2" stroke-linecap="round" stroke-linejoin="round" stroke-dasharray="0 0"/></g><g transform="translate(1310.0000000000002, 219.99999999999997) rotate(0, 0, 0)" width="76" height="20"><text text-decoration="none" x="0" fill="#1a1919" font-size="10pt" font-family="lt_regular"  y="15">Notification()</text><text text-decoration="none" x="72" fill="#4b4b4b" font-size="10pt" font-family="noto_regular"  y="15"></text></g></g></svg>