<?xml version="1.0" encoding="UTF-8"?>
<svg xmlns="http://www.w3.org/2000/svg" xmlns:xlink="http://www.w3.org/1999/xlink" viewBox="0 0 120 120" width="120px" height="120px">
<g id="surface127287563">
<path style=" stroke:none;fill-rule:nonzero;fill:rgb(94.509804%,76.862746%,5.882353%);fill-opacity:1;" d="M 59.9375 3.945312 C 57.730469 3.980469 55.96875 5.792969 56 8 L 56 20 C 55.980469 21.441406 56.738281 22.785156 57.984375 23.511719 C 59.230469 24.238281 60.769531 24.238281 62.015625 23.511719 C 63.261719 22.785156 64.019531 21.441406 64 20 L 64 8 C 64.015625 6.917969 63.589844 5.878906 62.824219 5.113281 C 62.0625 4.351562 61.019531 3.929688 59.9375 3.945312 Z M 23.1875 19.195312 C 21.5625 19.199219 20.097656 20.1875 19.488281 21.695312 C 18.878906 23.203125 19.242188 24.929688 20.40625 26.0625 L 28.890625 34.546875 C 29.894531 35.59375 31.382812 36.011719 32.785156 35.648438 C 34.1875 35.28125 35.28125 34.1875 35.648438 32.785156 C 36.011719 31.382812 35.59375 29.894531 34.546875 28.890625 L 26.0625 20.40625 C 25.308594 19.628906 24.269531 19.191406 23.1875 19.195312 Z M 96.6875 19.195312 C 95.648438 19.226562 94.660156 19.660156 93.9375 20.40625 L 85.453125 28.890625 C 84.410156 29.894531 83.988281 31.382812 84.351562 32.785156 C 84.71875 34.1875 85.8125 35.28125 87.214844 35.648438 C 88.617188 36.011719 90.105469 35.589844 91.109375 34.546875 L 99.59375 26.0625 C 100.777344 24.914062 101.132812 23.152344 100.488281 21.636719 C 99.847656 20.117188 98.335938 19.148438 96.6875 19.195312 Z M 60 32 C 44.535156 32 32 44.535156 32 60 C 32 75.464844 44.535156 88 60 88 C 75.464844 88 88 75.464844 88 60 C 88 44.535156 75.464844 32 60 32 Z M 8 56 C 6.558594 55.980469 5.214844 56.738281 4.488281 57.984375 C 3.761719 59.230469 3.761719 60.769531 4.488281 62.015625 C 5.214844 63.261719 6.558594 64.019531 8 64 L 20 64 C 21.441406 64.019531 22.785156 63.261719 23.511719 62.015625 C 24.238281 60.769531 24.238281 59.230469 23.511719 57.984375 C 22.785156 56.738281 21.441406 55.980469 20 56 Z M 100 56 C 98.558594 55.980469 97.214844 56.738281 96.488281 57.984375 C 95.761719 59.230469 95.761719 60.769531 96.488281 62.015625 C 97.214844 63.261719 98.558594 64.019531 100 64 L 112 64 C 113.441406 64.019531 114.785156 63.261719 115.511719 62.015625 C 116.238281 60.769531 116.238281 59.230469 115.511719 57.984375 C 114.785156 56.738281 113.441406 55.980469 112 56 Z M 31.640625 84.242188 C 30.601562 84.273438 29.613281 84.707031 28.890625 85.453125 L 20.40625 93.9375 C 19.359375 94.941406 18.941406 96.429688 19.304688 97.832031 C 19.671875 99.234375 20.765625 100.328125 22.167969 100.695312 C 23.570312 101.058594 25.058594 100.636719 26.0625 99.59375 L 34.546875 91.109375 C 35.730469 89.960938 36.085938 88.199219 35.441406 86.683594 C 34.800781 85.164062 33.289062 84.195312 31.640625 84.242188 Z M 88.242188 84.242188 C 86.613281 84.242188 85.148438 85.230469 84.535156 86.738281 C 83.925781 88.246094 84.285156 89.972656 85.453125 91.109375 L 93.9375 99.59375 C 94.941406 100.636719 96.429688 101.058594 97.832031 100.695312 C 99.234375 100.328125 100.328125 99.234375 100.695312 97.832031 C 101.058594 96.429688 100.636719 94.941406 99.59375 93.9375 L 91.109375 85.453125 C 90.355469 84.679688 89.320312 84.242188 88.242188 84.242188 Z M 59.9375 95.945312 C 57.730469 95.980469 55.96875 97.792969 56 100 L 56 112 C 55.980469 113.441406 56.738281 114.785156 57.984375 115.511719 C 59.230469 116.238281 60.769531 116.238281 62.015625 115.511719 C 63.261719 114.785156 64.019531 113.441406 64 112 L 64 100 C 64.015625 98.917969 63.589844 97.878906 62.824219 97.113281 C 62.0625 96.351562 61.019531 95.929688 59.9375 95.945312 Z M 59.9375 95.945312 "/>
</g>
</svg>
